<svg preserveAspectRatio="none" width="100%" height="100%" overflow="visible" style="display: block;" viewBox="0 0 18 18" fill="none" xmlns="http://www.w3.org/2000/svg">
<g id="Frame">
<path id="Vector" d="M2.25 13.5H15.75V4.5H2.25V13.5ZM0.75 3.75C0.75 3.33579 1.08579 3 1.5 3H16.5C16.9142 3 17.25 3.33579 17.25 3.75V14.25C17.25 14.6642 16.9142 15 16.5 15H1.5C1.08579 15 0.75 14.6642 0.75 14.25V3.75ZM6.75 7.5C6.75 7.08579 6.41421 6.75 6 6.75C5.58579 6.75 5.25 7.08579 5.25 7.5C5.25 7.91422 5.58579 8.25 6 8.25C6.41421 8.25 6.75 7.91422 6.75 7.5ZM8.25 7.5C8.25 8.74268 7.24264 9.75 6 9.75C4.75736 9.75 3.75 8.74268 3.75 7.5C3.75 6.25736 4.75736 5.25 6 5.25C7.24264 5.25 8.25 6.25736 8.25 7.5ZM6.00135 12C5.27627 12 4.62105 12.293 4.1452 12.7688L3.08454 11.7082C3.8302 10.9625 4.86247 10.5 6.00135 10.5C7.14023 10.5 8.17252 10.9625 8.91817 11.7082L7.85752 12.7688C7.38166 12.293 6.72643 12 6.00135 12ZM9.75 6.75V11.25H11.25V6.75H9.75ZM12.75 6.75V11.25H14.25V6.75H12.75Z" fill="var(--fill-0, #475367)"/>
</g>
</svg>
