<svg preserveAspectRatio="none" width="100%" height="100%" overflow="visible" style="display: block;" viewBox="0 0 18 18" fill="none" xmlns="http://www.w3.org/2000/svg">
<g id="Frame">
<path id="Vector" d="M1.5 15H16.5V16.5H1.5V15ZM3 9H4.5V14.25H3V9ZM6.75 9H8.25V14.25H6.75V9ZM9.75 9H11.25V14.25H9.75V9ZM13.5 9H15V14.25H13.5V9ZM1.5 5.25L9 1.5L16.5 5.25V8.25H1.5V5.25ZM3 6.17705V6.75H15V6.17705L9 3.17705L3 6.17705ZM9 6C8.58578 6 8.25 5.66421 8.25 5.25C8.25 4.83579 8.58578 4.5 9 4.5C9.41422 4.5 9.75 4.83579 9.75 5.25C9.75 5.66421 9.41422 6 9 6Z" fill="var(--fill-0, #344054)"/>
</g>
</svg>
