<svg preserveAspectRatio="none" width="100%" height="100%" overflow="visible" style="display: block;" viewBox="0 0 18 18" fill="none" xmlns="http://www.w3.org/2000/svg">
<g id="Frame">
<path id="Vector" d="M12.6793 4.26007L4.26007 12.6793C3.46983 11.663 3 10.3868 3 9C3 5.68629 5.68629 3 9 3C10.3868 3 11.663 3.46983 12.6793 4.26007ZM5.32072 13.7399L13.7399 5.32072C14.5302 6.33704 15 7.61318 15 9C15 12.3137 12.3137 15 9 15C7.61318 15 6.33704 14.5302 5.32072 13.7399ZM9 1.5C4.85786 1.5 1.5 4.85786 1.5 9C1.5 13.1417 4.85828 16.5 9 16.5C13.1421 16.5 16.5 13.1421 16.5 9C16.5 4.85828 13.1417 1.5 9 1.5Z" fill="var(--fill-0, #475367)"/>
</g>
</svg>
