<svg xmlns="http://www.w3.org/2000/svg" viewBox="0 0 420 280" fill="none">
  <rect width="420" height="280" rx="8" fill="#E8F5E9"/>
  <rect x="1" y="1" width="418" height="278" rx="7" stroke="#2E7D32" stroke-width="2"/>
  <text x="210" y="28" text-anchor="middle" fill="#1B5E20" font-family="Arial, sans-serif" font-size="11" font-weight="700">FEDERAL REPUBLIC OF NIGERIA</text>
  <text x="210" y="46" text-anchor="middle" fill="#2E7D32" font-family="Arial, sans-serif" font-size="10" font-weight="600">INTERNATIONAL PASSPORT</text>
  <text x="360" y="130" text-anchor="middle" fill="#A5D6A7" font-family="Arial, sans-serif" font-size="48" font-weight="700" opacity="0.5">NGA</text>
  <rect x="24" y="60" width="90" height="110" rx="4" fill="#C8E6C9" stroke="#66BB6A" stroke-width="1"/>
  <circle cx="69" cy="95" r="22" fill="#9E9E9E"/>
  <path d="M69 118 C55 118 45 130 45 145 L93 145 C93 130 83 118 69 118Z" fill="#9E9E9E"/>
  <text x="130" y="78" fill="#1B5E20" font-family="Arial, sans-serif" font-size="8">Surname</text>
  <text x="130" y="92" fill="#101928" font-family="Arial, sans-serif" font-size="11" font-weight="600">OKAFOR</text>
  <text x="130" y="110" fill="#1B5E20" font-family="Arial, sans-serif" font-size="8">Given Names</text>
  <text x="130" y="124" fill="#101928" font-family="Arial, sans-serif" font-size="11" font-weight="600">CHIOMA ADA</text>
  <text x="130" y="142" fill="#1B5E20" font-family="Arial, sans-serif" font-size="8">Nationality</text>
  <text x="130" y="156" fill="#101928" font-family="Arial, sans-serif" font-size="11" font-weight="600">NIGERIAN</text>
  <text x="280" y="78" fill="#1B5E20" font-family="Arial, sans-serif" font-size="8">Date of Birth</text>
  <text x="280" y="92" fill="#101928" font-family="Arial, sans-serif" font-size="11" font-weight="600">15 MAR 1992</text>
  <text x="280" y="110" fill="#1B5E20" font-family="Arial, sans-serif" font-size="8">Sex</text>
  <text x="280" y="124" fill="#101928" font-family="Arial, sans-serif" font-size="11" font-weight="600">F</text>
  <text x="280" y="142" fill="#1B5E20" font-family="Arial, sans-serif" font-size="8">Date of Issue</text>
  <text x="280" y="156" fill="#101928" font-family="Arial, sans-serif" font-size="11" font-weight="600">10 JAN 2022</text>
  <text x="24" y="195" fill="#1B5E20" font-family="Arial, sans-serif" font-size="8">Passport No.</text>
  <text x="24" y="210" fill="#101928" font-family="Arial, sans-serif" font-size="12" font-weight="700" letter-spacing="2">A12345678</text>
  <text x="24" y="235" fill="#1B5E20" font-family="Arial, sans-serif" font-size="8">Date of Expiry</text>
  <text x="24" y="250" fill="#101928" font-family="Arial, sans-serif" font-size="11" font-weight="600">09 JAN 2032</text>
  <line x1="24" y1="265" x2="396" y2="265" stroke="#66BB6A" stroke-width="0.5"/>
  <text x="210" y="275" text-anchor="middle" fill="#2E7D32" font-family="monospace" font-size="9" letter-spacing="1">P&lt;NGAOKAFOR&lt;&lt;CHIOMA&lt;ADA&lt;&lt;&lt;&lt;&lt;&lt;&lt;&lt;&lt;&lt;&lt;&lt;&lt;</text>
</svg>
