<svg preserveAspectRatio="none" width="100%" height="100%" overflow="visible" style="display: block;" viewBox="0 0 216 50" fill="none" xmlns="http://www.w3.org/2000/svg">
<g id="Layer 1">
<path id="Vector" d="M34.2723 29.6885C34.594 31.1406 34.6101 32.6573 34.594 32.9155C34.5522 34.8161 34.6133 34.5419 34.3784 36.4199C34.1307 38.3981 32.9853 39.9276 31.293 41.0055C28.3201 42.919 25.3054 44.7778 22.3519 46.7204C21.1035 47.54 20.0064 47.5788 18.7162 46.772C14.762 44.297 10.7403 41.9316 6.77648 39.4726C5.27837 38.5848 3.85289 37.5792 2.51344 36.4651C0.666656 34.8742 0.00709138 32.6734 0.00709138 30.2629C0.00709138 25.7968 -0.0315173 21.3275 0.0714391 16.8646C0.13011 15.1241 0.365116 13.3942 0.77283 11.7014C1.15248 10.0525 2.38152 8.95852 3.82935 8.15178C7.42317 6.1317 10.9977 4.06645 14.6173 2.10123C15.8741 1.43111 17.1837 0.865573 18.5328 0.410303C21.3995 -0.580374 24.0024 0.358671 26.4637 1.78176C27.046 2.10446 26.8787 2.42715 26.3704 2.74985C21.7202 5.47986 17.0764 8.22062 12.4391 10.9721C10.9366 11.866 9.45656 12.7986 8.02804 13.8054C7.81936 13.9648 7.64526 14.1652 7.51638 14.3944C7.38749 14.6235 7.30651 14.8766 7.27839 15.1381C7.22691 20.0431 7.23978 24.9481 7.25587 29.8563C7.2427 30.3178 7.35832 30.7738 7.58968 31.1729C7.82105 31.572 8.15897 31.8984 8.56534 32.1152C11.0427 33.5888 13.5094 35.084 15.9653 36.6007C17.3295 37.4429 18.6358 38.3852 20.0257 39.1822C20.2563 39.2933 20.508 39.3536 20.7638 39.3592C21.0196 39.3648 21.2737 39.3154 21.5089 39.2145C23.2045 38.2948 24.8164 37.2235 26.4991 36.278C27.4494 35.74 28.4402 35.2771 29.4623 34.8936C30.4073 34.5482 31.2707 34.0099 31.9978 33.3128C32.7249 32.6158 33.3 31.775 33.6867 30.8438C33.8251 30.5178 33.973 30.2919 34.2723 29.6885Z" fill="url(#paint0_linear_0_80)"/>
<path id="Vector_2" d="M52.8555 11.4594C53.0398 12.2757 53.1677 13.1038 53.2384 13.9377C53.3413 20.0463 53.4765 26.155 53.4475 32.2636C53.4787 33.6459 53.1492 35.0123 52.4918 36.2276C51.8343 37.4428 50.8717 38.4647 49.6993 39.1919C44.9407 42.3156 40.2562 45.5587 35.4495 48.6017C34.2387 49.4084 32.8389 49.884 31.3886 49.9813C29.9384 50.0787 28.4879 49.7944 27.1808 49.1567C26.3185 48.7631 25.4788 48.3145 24.6487 47.866C24.4016 47.6993 24.172 47.5079 23.9634 47.2948C25.3501 46.6107 26.6917 46.0847 27.895 45.336C31.8588 42.8577 35.7744 40.3375 39.6803 37.7559C41.6108 36.5006 43.4608 35.1517 45.3526 33.8545C45.8501 33.5481 46.2578 33.1149 46.5342 32.5991C46.8105 32.0833 46.9457 31.5032 46.9259 30.918C46.9484 26.1969 47.061 21.4791 47.1061 16.7581C47.1061 15.8868 47.3474 15.435 48.245 15.0704C50.0532 14.3475 51.9289 13.5698 52.8555 11.4594Z" fill="url(#paint1_linear_0_80)"/>
<path id="Vector_3" d="M15.7944 19.4332C15.7944 21.2618 15.7944 23.0904 15.7944 24.9191C15.7944 25.7161 16.1162 26.0614 16.869 25.5806C18.4456 24.5931 20.0446 23.6444 21.5503 22.5505C22.0022 22.1594 22.2849 21.6074 22.3386 21.0112C22.4255 19.5851 22.4255 18.1551 22.3386 16.729C22.2868 16.2756 22.3731 15.8172 22.5862 15.4139C22.7992 15.0107 23.1291 14.6817 23.5323 14.4702C24.6616 13.8022 25.7844 13.1374 26.9041 12.4372C29.3396 10.9044 31.7302 9.31671 34.2043 7.83553C34.4556 7.708 34.7302 7.63333 35.0112 7.61613C35.2923 7.59893 35.5739 7.63955 35.8388 7.73549C37.6502 8.49706 39.4358 9.35866 41.1893 10.2719C42.5728 10.9947 43.8822 11.8628 45.2625 12.5985C45.4418 12.6953 45.6399 12.7521 45.8432 12.7649C46.0464 12.7777 46.25 12.7463 46.4401 12.6727C47.6981 11.8886 48.8917 10.998 50.1111 10.146C50.9927 9.52968 50.8318 8.97142 49.9888 8.50351C48.0134 7.41603 46.0282 6.34468 44.0431 5.27655C43.1841 4.80864 42.3121 4.36978 41.4692 3.89219C40.4815 3.3436 39.5388 2.73693 38.5285 2.20771C35.4044 0.549056 32.4155 0.916929 29.5456 2.85311C28.22 3.74375 26.8687 4.59566 25.5142 5.43467C23.114 6.93521 20.7106 8.39057 18.3458 9.89756C16.6277 10.9721 15.8137 12.5856 15.8041 14.5992C15.8041 16.2127 15.8041 17.8262 15.8041 19.4397L15.7944 19.4332Z" fill="url(#paint2_linear_0_80)"/>
<path id="Vector_4" d="M44.9267 16.1353C44.6632 16.1353 43.4715 16.6418 42.5683 17.0329C37.322 19.3049 34.2164 22.1368 31.2516 26.1066C29.8702 27.8682 28.5497 30.4717 28.0412 32.6233C27.9402 33.0835 27.9661 33.4724 28.7451 33.5534C29.524 33.6344 30.0927 33.0252 30.0927 33.0252C30.0927 33.0252 30.5552 32.6521 32.2104 30.5559C35.0992 26.8974 38.7618 21.9683 42.2213 18.7051C43.2533 17.7316 44.044 17.1074 44.9536 16.3038C44.9536 16.3038 45.1901 16.1353 44.9267 16.1353Z" fill="url(#paint3_linear_0_80)"/>
<path id="Vector_5" d="M18.5072 27.8653C18.5072 27.8653 23.1885 30.876 25.9072 32.6089C26.6279 33.0671 27.3872 32.212 27.5995 31.6537C28.0757 30.3984 28.5133 29.1238 28.983 27.8653C29.2114 27.2521 29.0441 26.8326 28.4907 26.4841C27.0333 25.5483 25.5629 24.6093 24.1376 23.6121C23.9202 23.4217 23.6413 23.3168 23.3526 23.3168C23.0639 23.3168 22.785 23.4217 22.5675 23.6121C21.4897 24.3511 20.3829 25.0449 19.2697 25.729C18.8225 26.0033 17.8283 26.6391 17.2202 26.9456C17.3618 27.0554 18.5072 27.8653 18.5072 27.8653Z" fill="url(#paint4_linear_0_80)"/>
<path id="Vector_6" d="M69.9016 31.1342C68.4001 31.1342 67.1722 30.8524 66.2177 30.2887C65.2665 29.7322 64.523 28.8788 64.1006 27.8588C63.6181 26.6547 63.3859 25.3644 63.4185 24.0671V15.6157H66.5072V24.2188C66.5054 24.8862 66.6141 25.5492 66.829 26.1808C67.0245 26.7757 67.3959 27.2968 67.8939 27.6749C68.4922 28.0891 69.2112 28.2912 69.937 28.2493C70.6593 28.2962 71.3758 28.0935 71.9671 27.6749C72.4459 27.2891 72.7933 26.7636 72.9613 26.1711C73.1481 25.5428 73.2424 24.8906 73.2412 24.2349V15.6157H76.3331V24.0671C76.3591 25.3611 76.126 26.6471 75.6478 27.8491C75.2362 28.8712 74.5 29.7287 73.5533 30.2887C72.4331 30.8924 71.1722 31.1843 69.9016 31.1342Z" fill="var(--fill-0, #005A61)"/>
<path id="Vector_7" d="M79.4512 30.9599V15.6157H82.6074L89.6857 25.9969V15.6157H92.7776V30.9599H89.7082L82.5431 20.6853V30.9599H79.4512Z" fill="var(--fill-0, #005A61)"/>
<path id="Vector_8" d="M96.0049 30.9599V15.6157H99.1032V30.9599H96.0049Z" fill="var(--fill-0, #005A61)"/>
<path id="Vector_9" d="M102.336 30.9599V15.6157H113.227V18.4974H105.425V22.4633H112.014V25.3257H105.425V30.9599H102.336Z" fill="var(--fill-0, #005A61)"/>
<path id="Vector_10" d="M119.578 30.9599V25.2385L113.902 15.6157H117.467L121.141 22.3568L124.874 15.6157H128.381L122.67 25.2159V30.9599H119.578Z" fill="var(--fill-0, #005A61)"/>
<path id="Vector_11" d="M136.563 31.1342C135.186 31.1842 133.824 30.8334 132.641 30.1241C131.602 29.4594 130.789 28.4924 130.312 27.3522C129.78 26.0721 129.518 24.6954 129.543 23.3088C129.516 21.9294 129.778 20.5596 130.312 19.288C130.802 18.1448 131.618 17.1725 132.657 16.4935C133.7 15.805 135.014 15.4619 136.599 15.4641C137.59 15.4419 138.575 15.622 139.494 15.9933C140.262 16.3137 140.94 16.8165 141.47 17.4583C141.993 18.093 142.359 18.8427 142.538 19.6462H140.636C140.416 18.8904 139.917 18.2475 139.24 17.8488C138.425 17.3727 137.493 17.1388 136.55 17.1744C135.506 17.1248 134.476 17.427 133.623 18.0327C132.88 18.6068 132.315 19.3799 131.991 20.2626C131.638 21.2132 131.46 22.2201 131.464 23.2346C131.451 24.2918 131.635 25.3422 132.004 26.3325C132.333 27.2774 132.96 28.089 133.791 28.6445C134.621 29.2 135.609 29.4691 136.605 29.411C137.261 29.4213 137.914 29.3187 138.535 29.1076C139.069 28.93 139.556 28.637 139.964 28.2493C140.333 27.8942 140.605 27.4496 140.752 26.9585H142.805C142.601 27.7741 142.205 28.5288 141.65 29.1593C141.071 29.8047 140.349 30.3054 139.543 30.6211C138.592 30.984 137.58 31.1583 136.563 31.1342Z" fill="var(--fill-0, #005A61)"/>
<path id="Vector_12" d="M152.054 31.1342C150.659 31.1825 149.279 30.8287 148.078 30.1145C147.018 29.4417 146.181 28.4693 145.671 27.3199C145.115 26.0574 144.838 24.6889 144.86 23.3088C144.836 21.9223 145.113 20.5471 145.671 19.2783C146.181 18.1286 147.019 17.1554 148.078 16.4806C149.296 15.8137 150.662 15.4643 152.05 15.4643C153.437 15.4643 154.803 15.8137 156.021 16.4806C157.076 17.1577 157.91 18.1305 158.418 19.2783C158.976 20.5471 159.253 21.9223 159.229 23.3088C159.251 24.6889 158.975 26.0574 158.418 27.3199C157.91 28.4674 157.077 29.4394 156.021 30.1145C154.825 30.8304 153.447 31.1845 152.054 31.1342ZM152.054 29.4207C153.112 29.4652 154.156 29.1726 155.037 28.5849C155.815 28.0308 156.413 27.2584 156.755 26.3647C157.131 25.3906 157.318 24.3533 157.305 23.3088C157.308 22.5071 157.199 21.7089 156.983 20.937C156.791 20.2268 156.463 19.5606 156.018 18.975C155.583 18.4102 155.021 17.9568 154.377 17.6519C153.644 17.3198 152.846 17.1566 152.042 17.1744C150.987 17.1345 149.948 17.4305 149.072 18.0198C148.288 18.5818 147.681 19.3565 147.322 20.2529C146.931 21.2234 146.736 22.2621 146.749 23.3088C146.738 24.3468 146.928 25.377 147.309 26.3421C147.669 27.2932 148.322 28.1044 149.173 28.658C150.024 29.2116 151.029 29.4787 152.042 29.4207H152.054Z" fill="var(--fill-0, #005A61)"/>
<path id="Vector_13" d="M162.164 30.9599V15.6383H165.014L169.596 24.0671L174.1 15.6383H176.886V30.9599H175.007V17.6294L169.969 26.9488H169.103L164.026 17.6294V30.9599H162.164Z" fill="var(--fill-0, #005A61)"/>
<path id="Vector_14" d="M180.645 30.9599V15.6383H185.937C186.931 15.6129 187.918 15.801 188.833 16.1901C189.613 16.5346 190.261 17.1234 190.68 17.8681C191.137 18.7504 191.359 19.7366 191.323 20.7305C191.356 21.7325 191.098 22.7226 190.58 23.5799C190.088 24.3496 189.381 24.9569 188.546 25.3257C187.605 25.7308 186.588 25.93 185.564 25.9097H182.54V30.9599H180.645ZM182.523 24.1833H185.461C186.474 24.2302 187.473 23.9372 188.302 23.3508C189.031 22.7957 189.396 21.8889 189.396 20.6304C189.396 19.5333 189.1 18.7093 188.508 18.1586C187.919 17.61 187.031 17.3357 185.85 17.3357H182.523V24.1833Z" fill="var(--fill-0, #005A61)"/>
<path id="Vector_15" d="M194.257 30.9599V15.6383H196.136V29.2464H204.521V30.9599H194.257Z" fill="var(--fill-0, #005A61)"/>
<path id="Vector_16" d="M208.755 30.9599V25.2159L203.346 15.6383H205.528L209.71 23.3088L213.861 15.6383H216L210.634 25.1933V30.9599H208.755Z" fill="var(--fill-0, #005A61)"/>
</g>
<defs>
<linearGradient id="paint0_linear_0_80" x1="25.8009" y1="8.28086" x2="6.69021" y2="45.2898" gradientUnits="userSpaceOnUse">
<stop stop-color="#005A61"/>
<stop offset="1" stop-color="#005A61"/>
</linearGradient>
<linearGradient id="paint1_linear_0_80" x1="39.0851" y1="48.1532" x2="37.9814" y2="8.53273" gradientUnits="userSpaceOnUse">
<stop stop-color="#005A61"/>
<stop offset="1" stop-color="#8FCFB1"/>
</linearGradient>
<linearGradient id="paint2_linear_0_80" x1="15.7944" y1="13.4795" x2="50.6902" y2="13.4795" gradientUnits="userSpaceOnUse">
<stop stop-color="#39B9C5"/>
<stop offset="1" stop-color="#90D0B2"/>
</linearGradient>
<linearGradient id="paint3_linear_0_80" x1="24.0283" y1="35.7667" x2="43.1689" y2="15.8673" gradientUnits="userSpaceOnUse">
<stop stop-color="#12A3C5"/>
<stop offset="1" stop-color="#90D0B2"/>
</linearGradient>
<linearGradient id="paint4_linear_0_80" x1="18.1147" y1="23.212" x2="32.7713" y2="33.0784" gradientUnits="userSpaceOnUse">
<stop stop-color="#12A3C5"/>
<stop offset="1" stop-color="#90D0B2"/>
</linearGradient>
</defs>
</svg>
