<svg preserveAspectRatio="none" width="100%" height="100%" overflow="visible" style="display: block;" viewBox="0 0 18 18" fill="none" xmlns="http://www.w3.org/2000/svg">
<g id="Frame">
<path id="Vector" d="M8.25367 1.5L13.7274 3.21053C14.0404 3.30838 14.2537 3.59836 14.2537 3.92639V5.25H15.7537C16.1679 5.25 16.5037 5.58579 16.5037 6V12C16.5037 12.4142 16.1679 12.75 15.7537 12.75L13.3386 12.7508C13.0486 13.1331 12.6957 13.4714 12.2887 13.7489L8.25367 16.5L4.21864 13.7489C2.98922 12.9106 2.25366 11.5188 2.25366 10.0308V3.92639C2.25366 3.59836 2.46685 3.30838 2.77996 3.21053L8.25367 1.5ZM8.25367 3.0705L3.75366 4.4775V10.0308C3.75366 10.9645 4.18805 11.8413 4.92247 12.4071L5.06366 12.5095L8.25367 14.6843L11.0902 12.75H7.50367C7.08945 12.75 6.75366 12.4142 6.75366 12V6C6.75366 5.58579 7.08945 5.25 7.50367 5.25H12.7537V4.4775L8.25367 3.0705ZM8.25367 9V11.25H15.0037V9H8.25367ZM8.25367 7.5H15.0037V6.75H8.25367V7.5Z" fill="var(--fill-0, #475367)"/>
</g>
</svg>
