<svg preserveAspectRatio="none" width="100%" height="100%" overflow="visible" style="display: block;" viewBox="0 0 18 18" fill="none" xmlns="http://www.w3.org/2000/svg">
<g id="Frame">
<path id="Vector" d="M15 16.5H3C2.58579 16.5 2.25 16.1642 2.25 15.75V2.25C2.25 1.83579 2.58579 1.5 3 1.5H15C15.4142 1.5 15.75 1.83579 15.75 2.25V15.75C15.75 16.1642 15.4142 16.5 15 16.5ZM14.25 15V3H3.75V15H14.25ZM5.25 4.5H8.25V7.5H5.25V4.5ZM5.25 9H12.75V10.5H5.25V9ZM5.25 12H12.75V13.5H5.25V12ZM9.75 5.25H12.75V6.75H9.75V5.25Z" fill="var(--fill-0, #475367)"/>
</g>
</svg>
