<svg preserveAspectRatio="none" width="100%" height="100%" overflow="visible" style="display: block;" viewBox="0 0 18 18" fill="none" xmlns="http://www.w3.org/2000/svg">
<g id="Frame">
<path id="Vector" d="M10.5 7.5H7.5V10.5H10.5V7.5ZM12 7.5V10.5H14.25V7.5H12ZM10.5 14.25V12H7.5V14.25H10.5ZM12 14.25H14.25V12H12V14.25ZM10.5 3.75H7.5V6H10.5V3.75ZM12 3.75V6H14.25V3.75H12ZM6 7.5H3.75V10.5H6V7.5ZM6 14.25V12H3.75V14.25H6ZM6 3.75H3.75V6H6V3.75ZM3 2.25H15C15.4142 2.25 15.75 2.58579 15.75 3V15C15.75 15.4142 15.4142 15.75 15 15.75H3C2.58579 15.75 2.25 15.4142 2.25 15V3C2.25 2.58579 2.58579 2.25 3 2.25Z" fill="var(--fill-0, #475367)"/>
</g>
</svg>
