<svg preserveAspectRatio="none" width="100%" height="100%" overflow="visible" style="display: block;" viewBox="0 0 18 18" fill="none" xmlns="http://www.w3.org/2000/svg">
<g id="Frame">
<path id="Vector" d="M9.0003 12C10.6571 12 12.0003 10.6568 12.0003 9C12.0003 7.34315 10.6571 6 9.0003 6C7.34342 6 6.00028 7.34315 6.00028 9C6.00028 10.6568 7.34342 12 9.0003 12ZM15.7537 3.0022H2.25366C1.83945 3.0022 1.50366 3.33798 1.50366 3.7522V14.2522C1.50366 14.6664 1.83945 15.0022 2.25366 15.0022H15.7537C16.1679 15.0022 16.5037 14.6664 16.5037 14.2522V3.7522C16.5037 3.33798 16.1679 3.0022 15.7537 3.0022ZM3.00366 11.7347V6.26528C3.84799 6.01275 4.51377 5.34669 4.76591 4.5022H13.2347C13.4875 5.34895 14.1561 6.01631 15.0037 6.2673V11.7327C14.1547 11.9841 13.4851 12.6533 13.2333 13.5022H4.76722C4.51608 12.6556 3.84946 11.9877 3.00366 11.7347Z" fill="var(--fill-0, #475367)"/>
</g>
</svg>
